<svg width="117" height="101" viewBox="0 0 117 101" fill="none" xmlns="http://www.w3.org/2000/svg">
<path d="M115.409 96.0766C115.409 98.7958 89.5741 101 57.7047 101C25.8353 101 0 98.7955 0 96.0766C0 93.3574 25.8353 91.1533 57.7047 91.1533C89.5741 91.1533 115.409 93.3578 115.409 96.0766Z" fill="#A5D4D6"/>
<path d="M31.3877 66.6378C34.6714 66.721 37.7503 66.759 38.2427 69.918C38.7351 73.077 38.8808 74.6565 37.5401 74.6565C36.1991 74.6565 34.7457 72.0795 34.7457 72.0795C34.7457 72.0795 32.4709 71.7902 31.3877 71.6596V66.6378Z" fill="#ED983B"/>
<path d="M20.7746 79.1127C22.6571 76.4525 22.6231 71.0247 21.3406 65.0073C20.7882 62.4163 19.9978 60.8038 19.2763 59.8057C19.2595 59.8043 19.243 59.8033 19.2259 59.802C19.2122 59.801 19.1989 59.8 19.1856 59.799C19.1096 59.793 19.0329 59.786 18.9555 59.7784C18.9534 59.7777 18.9516 59.7767 18.9495 59.776C18.4246 59.3811 18.1377 58.7802 17.3308 58.2321C17.1553 58.1129 16.754 57.8209 16.5442 57.6848C16.5442 57.6848 15.815 58.6333 15.5849 59.0712C15.0221 60.1416 14.7142 60.8395 14.5104 61.3515C14.2418 62.0264 12.9901 67.0343 14.8333 70.6921C15.2942 71.6067 16.0458 72.1411 16.0262 72.6855C15.9775 74.0173 17.0026 75.0111 14.2162 79.7776C13.0506 81.7717 11.8276 83.6878 11.282 85.5267C10.5237 88.083 11.0771 90.4899 14.9373 92.7467C14.9373 92.7467 18.731 93.5541 23.0041 93.5411C22.7562 92.5589 22.705 91.2591 23.035 89.5324C24.2632 83.1031 18.8918 81.773 20.7746 79.1127Z" fill="#ED983B"/>
<path d="M33.1492 79.4743C34.9105 83.1448 36.6385 88.3934 31.8975 91.5278C31.4296 91.8371 30.9172 92.0994 30.3754 92.3265C33.581 92.5712 34.9651 91.0843 34.9651 91.0843C34.9651 91.0843 37.3138 89.1998 38.19 85.542C39.0656 81.8842 33.1492 79.4743 33.1492 79.4743Z" fill="#ED983B"/>
<path d="M33.1496 79.4744C32.8554 78.8614 32.5602 78.2907 32.2944 77.783C30.435 74.2361 32.9721 70.6769 32.1847 67.4626C31.3978 64.2479 30.448 62.0282 30.448 62.0282L29.5072 60.5835C28.8793 61.0393 29.8393 59.8736 28.8604 60.127C28.535 60.2113 28.1876 60.2948 27.8114 60.3844C25.0131 61.0493 21.3403 59.8024 21.3403 59.8024C21.3403 59.8024 21.3357 59.8027 21.3291 59.8034C21.3277 59.8034 21.3245 59.8037 21.3228 59.8041C21.3154 59.8047 21.3059 59.8054 21.294 59.8064C21.2905 59.8067 21.2856 59.8071 21.2818 59.8074C21.2695 59.8084 21.2552 59.8094 21.2394 59.8107C21.2327 59.811 21.2254 59.8117 21.218 59.8124C21.2009 59.8137 21.1823 59.8147 21.162 59.8161C21.1536 59.8167 21.1448 59.817 21.1361 59.8177C21.114 59.819 21.0895 59.8204 21.0643 59.822C21.0548 59.8227 21.045 59.823 21.0352 59.8237C21.0068 59.8254 20.9767 59.8267 20.9449 59.828C20.9358 59.8284 20.927 59.829 20.9179 59.8294C20.8794 59.831 20.8387 59.8327 20.796 59.834C20.7918 59.834 20.7883 59.8344 20.7841 59.8344C20.6384 59.8394 20.4689 59.8427 20.2805 59.8427C20.2742 59.8427 20.2675 59.8427 20.2612 59.8427C20.2062 59.8427 20.1498 59.8424 20.0917 59.8414C20.0794 59.8414 20.0672 59.841 20.0549 59.8407C20.002 59.8397 19.9478 59.8387 19.8928 59.8374C19.877 59.837 19.8609 59.8364 19.8448 59.836C19.7916 59.8344 19.7373 59.8324 19.6826 59.83C19.6655 59.8294 19.6483 59.8287 19.6308 59.8277C19.5751 59.825 19.5187 59.822 19.4613 59.8187C19.4441 59.8177 19.4273 59.8167 19.4102 59.8157C19.366 59.8131 19.3208 59.8097 19.2757 59.8064C19.9971 60.8046 20.7876 62.4174 21.3399 65.0081C22.6224 71.0255 22.6568 76.4532 20.7739 79.1135C18.8911 81.7737 24.2626 83.1039 23.0343 89.5328C22.7044 91.2595 22.7552 92.5593 23.0035 93.5415C25.5209 93.5338 28.2012 93.2388 30.3751 92.3269C30.9166 92.0998 31.4293 91.8371 31.8972 91.5282C36.639 88.3934 34.9109 83.1448 33.1496 79.4744Z" fill="#FCF5ED"/>
<path d="M23.0356 73.9337C23.0356 73.9337 22.6163 72.9638 22.7074 71.9663" stroke="url(#paint0_linear_1_742)" stroke-miterlimit="10" stroke-linecap="round"/>
<path d="M11.2822 85.5276C11.0966 85.3954 10.988 85.3208 10.988 85.3208C10.988 85.3208 8.63165 83.6581 7.23248 85.3208C5.83332 86.9836 8.53393 93.0799 14.9375 92.7473C11.0773 90.4912 10.5239 88.0843 11.2822 85.5276Z" fill="#B57733"/>
<path d="M22.3739 57.4379C23.9899 58.3938 28.5152 58.7693 29.3792 58.6328C30.2432 58.4963 31.3524 57.4379 31.3524 57.4379C31.6396 57.7452 32.753 57.8817 32.753 57.8817C32.753 57.8817 33.6149 57.7005 33.5431 56.2549C33.4713 54.8089 31.1727 53.9895 31.1727 53.9895L29.1376 53.6026C29.1376 53.6026 27.365 48.087 24.4743 46.1172C24.0463 46.1003 23.5574 46.0949 23.0902 46.1222C23.0881 46.1222 23.086 46.1226 23.0835 46.1226C22.9697 46.1292 22.8576 46.1379 22.7476 46.1489C22.7434 46.1492 22.7389 46.1499 22.735 46.1502C22.6261 46.1612 22.5196 46.1745 22.417 46.1902C22.4128 46.1908 22.409 46.1915 22.4048 46.1921C22.3018 46.2081 22.2027 46.2268 22.1085 46.2481C22.106 46.2488 22.1036 46.2491 22.1015 46.2498C22.0062 46.2717 21.9155 46.2964 21.8321 46.3243C21.8475 46.322 23.3486 46.0989 24.3489 47.5935C25.3544 49.0958 27.6372 52.0091 27.4537 53.9212C27.4537 53.9212 23.9181 57.4718 18.6986 56.8802C18.6986 56.8802 16.9352 58.8905 21.2406 60.5256C21.3043 60.532 21.3674 60.5373 21.4297 60.5426C21.4409 60.5436 21.4518 60.5443 21.463 60.5449C21.5141 60.5489 21.5649 60.5526 21.615 60.5556C21.629 60.5566 21.643 60.5573 21.657 60.5579C21.704 60.5606 21.7505 60.5632 21.7961 60.5652C21.8104 60.5659 21.8244 60.5666 21.8384 60.5672C21.8836 60.5692 21.9281 60.5709 21.9719 60.5719C21.9852 60.5722 21.9981 60.5729 22.0111 60.5732C22.0563 60.5746 22.1008 60.5752 22.1442 60.5762C22.1543 60.5762 22.1645 60.5766 22.1743 60.5766C22.2219 60.5772 22.2682 60.5776 22.3133 60.5776C22.3186 60.5776 22.3239 60.5776 22.3291 60.5776C22.4836 60.5776 22.623 60.5749 22.7427 60.5706C22.7462 60.5706 22.749 60.5702 22.7525 60.5702C22.7876 60.5689 22.8212 60.5676 22.8527 60.5662C22.8604 60.5659 22.8674 60.5656 22.8748 60.5652C22.9007 60.5639 22.9259 60.5629 22.949 60.5616C22.9571 60.5613 22.9651 60.5606 22.9728 60.5603C22.9938 60.5589 23.0138 60.5579 23.032 60.5569C23.0394 60.5566 23.0467 60.5559 23.0534 60.5556C23.0702 60.5546 23.0853 60.5536 23.0993 60.5526C23.1052 60.5523 23.1115 60.5516 23.1168 60.5513C23.1301 60.5503 23.1416 60.5496 23.1518 60.5486C23.155 60.5483 23.1588 60.5479 23.162 60.5479C23.1721 60.5473 23.1798 60.5466 23.1858 60.5459C23.1872 60.5459 23.1896 60.5456 23.1907 60.5456C23.1959 60.5453 23.1998 60.5446 23.1998 60.5446C23.1998 60.5446 26.2166 61.5688 28.5148 61.0227C28.8237 60.9491 29.1092 60.8805 29.3764 60.8113C28.0077 60.3865 25.8209 59.6803 24.6003 59.1449C22.7329 58.3255 22.3739 57.4379 22.3739 57.4379Z" fill="#FCF5ED"/>
<path d="M32.7365 57.8791C32.733 57.8788 32.7302 57.8781 32.7246 57.8774H32.7239C32.712 57.8758 32.6969 57.8738 32.6784 57.8711C32.6749 57.8704 32.6717 57.8701 32.6675 57.8694H32.6668C32.6206 57.8628 32.5596 57.8531 32.4857 57.8401C32.4076 57.8265 32.3169 57.8088 32.222 57.7882C32.2136 57.7865 32.2056 57.7845 32.1972 57.7829C32.1663 57.7759 32.1355 57.7689 32.1043 57.7612H32.1036C32.0886 57.7576 32.0742 57.7542 32.0592 57.7502C32.0133 57.7386 31.9674 57.7266 31.9219 57.7133C31.9219 57.7133 31.495 59.9134 28.2249 60.4471L29.3771 60.8114C31.0981 60.3659 32.0073 59.8911 32.7533 57.8818C32.7526 57.8811 32.7463 57.8801 32.7365 57.8791Z" fill="#FCF5ED"/>
<path d="M21.2406 60.5264C16.9352 58.8913 18.6986 56.881 18.6986 56.881C23.9181 57.4726 27.4536 53.9221 27.4536 53.9221C27.6371 52.0103 25.3547 49.0966 24.3489 47.5944C23.3482 46.0997 21.8472 46.3228 21.8321 46.3252C21.6146 46.3984 21.4399 46.493 21.3323 46.6158C19.2495 46.0694 14.0059 44.0211 14.0059 44.0211C12.4936 45.8847 15.3483 49.5741 16.6792 51.1096C16.626 51.1829 16.5731 51.2518 16.5198 51.3277L14.0059 56.8587C14.0059 56.8587 17.31 58.7705 18.8184 59.795C19.5329 60.2801 20.5534 60.4742 21.4297 60.5438C21.3674 60.5384 21.3043 60.5328 21.2406 60.5264Z" fill="#ED983B"/>
<path d="M20.0355 47.7009C17.9188 46.9394 14.9628 45.1358 14.9628 45.1358C13.9297 46.4093 15.7536 48.9707 17.1006 50.5532C18.3643 48.9651 19.1806 48.3648 20.0355 47.7009Z" fill="url(#paint1_linear_1_742)"/>
<path d="M30.5978 49.5515C30.6689 49.659 30.7323 49.7692 30.7915 49.8811L30.7922 49.8808C31.4892 49.1629 31.7711 47.4119 31.867 45.1359C31.9627 42.8599 30.4784 42.7686 30.4784 42.7686C27.9406 45.4089 25.7139 46.2057 25.7139 46.2057C25.7139 46.2057 29.3766 47.7079 30.5978 49.5515Z" fill="#ED983B"/>
<path d="M30.5969 49.552C30.668 49.6596 30.7314 49.7698 30.7906 49.8817L30.7913 49.8813C31.4883 49.1635 31.7702 47.4125 31.8662 45.1365C31.8886 44.6057 31.8227 44.1975 31.7121 43.8779C31.3321 43.482 30.909 43.4507 30.909 43.4507C29.2601 45.281 27.7471 46.2775 26.8863 46.7536C28.0676 47.3519 29.8226 48.3831 30.5969 49.552Z" fill="url(#paint2_linear_1_742)"/>
<path d="M21.6146 60.557C21.5645 60.554 21.5137 60.5503 21.4626 60.5463" stroke="url(#paint3_linear_1_742)" stroke-width="0.8214" stroke-miterlimit="10" stroke-linecap="round"/>
<path d="M21.7958 60.5655C21.7499 60.5635 21.7037 60.5609 21.6567 60.5582" stroke="url(#paint4_linear_1_742)" stroke-width="0.8214" stroke-miterlimit="10" stroke-linecap="round"/>
<path d="M23.0314 60.5582C23.0132 60.5592 22.9933 60.5605 22.9723 60.5616C22.9936 60.5605 23.0132 60.5595 23.0314 60.5582Z" stroke="url(#paint5_linear_1_742)" stroke-width="0.8214" stroke-miterlimit="10" stroke-linecap="round"/>
<path d="M22.8527 60.5677C22.8212 60.569 22.7876 60.5704 22.7526 60.5717C22.788 60.5704 22.8212 60.569 22.8527 60.5677Z" stroke="url(#paint6_linear_1_742)" stroke-width="0.8214" stroke-miterlimit="10" stroke-linecap="round"/>
<path d="M22.9482 60.5629C22.9251 60.5643 22.8999 60.5653 22.874 60.5666C22.9002 60.5653 22.9251 60.564 22.9482 60.5629Z" stroke="url(#paint7_linear_1_742)" stroke-width="0.8214" stroke-miterlimit="10" stroke-linecap="round"/>
<path d="M22.7427 60.5724C22.6229 60.5764 22.4836 60.5794 22.3291 60.5794C22.4836 60.5791 22.6229 60.5764 22.7427 60.5724Z" stroke="url(#paint8_linear_1_742)" stroke-width="0.8214" stroke-miterlimit="10" stroke-linecap="round"/>
<path d="M23.099 60.5534C23.0852 60.5544 23.0699 60.5554 23.0536 60.5564C23.0703 60.5554 23.0852 60.5544 23.099 60.5534Z" stroke="url(#paint9_linear_1_742)" stroke-width="0.8214" stroke-miterlimit="10" stroke-linecap="round"/>
<path d="M22.314 60.5782C22.2688 60.5782 22.2225 60.5779 22.1749 60.5772" stroke="url(#paint10_linear_1_742)" stroke-width="0.8214" stroke-miterlimit="10" stroke-linecap="round"/>
<path d="M22.1442 60.5778C22.1007 60.5772 22.0563 60.5762 22.0111 60.5748C22.0563 60.5762 22.1004 60.5772 22.1442 60.5778Z" stroke="url(#paint11_linear_1_742)" stroke-width="0.8214" stroke-miterlimit="10" stroke-linecap="round"/>
<path d="M21.971 60.5724C21.9272 60.571 21.8827 60.5694 21.8376 60.5677" stroke="url(#paint12_linear_1_742)" stroke-width="0.8214" stroke-miterlimit="10" stroke-linecap="round"/>
<path d="M24.4741 46.1173C27.3649 48.0871 29.1374 53.6027 29.1374 53.6027L31.1726 53.9896C31.1726 53.9896 31.7445 51.6889 30.7915 49.881C30.7327 49.7691 30.669 49.6586 30.5979 49.5514C29.377 47.7078 25.7136 46.2056 25.7136 46.2056C25.7136 46.2056 24.3253 46.0507 23.09 46.1226C23.5572 46.095 24.0461 46.1 24.4741 46.1173Z" fill="#ED983B"/>
<path d="M23.2002 60.5463C23.2002 60.5463 23.1962 60.5466 23.1907 60.5473C23.1969 60.5466 23.2002 60.5463 23.2002 60.5463Z" stroke="url(#paint13_linear_1_742)" stroke-width="0.8214" stroke-miterlimit="10" stroke-linecap="round"/>
<path d="M23.1851 60.5463C23.1792 60.5466 23.1716 60.5473 23.1616 60.5484" stroke="url(#paint14_linear_1_742)" stroke-width="0.8214" stroke-miterlimit="10" stroke-linecap="round"/>
<path d="M23.1525 60.5487C23.1421 60.5493 23.1303 60.5503 23.1167 60.5513C23.1306 60.5503 23.1421 60.5497 23.1525 60.5487Z" stroke="url(#paint15_linear_1_742)" stroke-width="0.8214" stroke-miterlimit="10" stroke-linecap="round"/>
<path d="M23.1914 60.5463C23.1902 60.5463 23.1875 60.5473 23.1859 60.5473C23.1879 60.5463 23.1898 60.5463 23.1914 60.5463Z" stroke="url(#paint16_linear_1_742)" stroke-width="0.8214" stroke-miterlimit="10" stroke-linecap="round"/>
<path d="M23.0538 60.5558C23.0466 60.5562 23.0394 60.5568 23.0318 60.5572C23.0394 60.5568 23.0466 60.5565 23.0538 60.5558Z" stroke="url(#paint17_linear_1_742)" stroke-width="0.8214" stroke-miterlimit="10" stroke-linecap="round"/>
<path d="M23.117 60.5511C23.1115 60.5514 23.1056 60.5521 23.0997 60.5524" stroke="url(#paint18_linear_1_742)" stroke-width="0.8214" stroke-miterlimit="10" stroke-linecap="round"/>
<path d="M22.8748 60.5653C22.8673 60.5657 22.8597 60.566 22.8521 60.5663C22.8601 60.566 22.8673 60.5657 22.8748 60.5653Z" stroke="url(#paint19_linear_1_742)" stroke-width="0.8214" stroke-miterlimit="10" stroke-linecap="round"/>
<path d="M22.9715 60.5606C22.9639 60.5609 22.956 60.5616 22.948 60.5619C22.9563 60.5612 22.9639 60.5609 22.9715 60.5606Z" stroke="url(#paint20_linear_1_742)" stroke-width="0.8214" stroke-miterlimit="10" stroke-linecap="round"/>
<path d="M23.1613 60.5487C23.1584 60.5496 23.154 60.5506 23.1507 60.5506C23.1543 60.5496 23.158 60.5496 23.1613 60.5487Z" stroke="url(#paint21_linear_1_742)" stroke-width="0.8214" stroke-miterlimit="10" stroke-linecap="round"/>
<path d="M22.7532 60.5724C22.7495 60.5724 22.7466 60.5734 22.743 60.5734C22.7466 60.5734 22.7499 60.5734 22.7532 60.5724Z" stroke="url(#paint22_linear_1_742)" stroke-width="0.8214" stroke-miterlimit="10" stroke-linecap="round"/>
<path d="M21.837 60.5673C21.8232 60.5667 21.809 60.566 21.7951 60.5653C21.8093 60.566 21.8232 60.5667 21.837 60.5673Z" stroke="url(#paint23_linear_1_742)" stroke-width="0.8214" stroke-miterlimit="10" stroke-linecap="round"/>
<path d="M22.33 60.5772C22.3244 60.5772 22.3188 60.5772 22.3133 60.5772" stroke="url(#paint24_linear_1_742)" stroke-width="0.8214" stroke-miterlimit="10" stroke-linecap="round"/>
<path d="M21.4637 60.5463C21.4523 60.5453 21.4412 60.5446 21.4297 60.5439" stroke="url(#paint25_linear_1_742)" stroke-width="0.8214" stroke-miterlimit="10" stroke-linecap="round"/>
<path d="M22.1763 60.5781C22.1656 60.5781 22.1549 60.5772 22.1446 60.5772C22.1553 60.5772 22.1656 60.5772 22.1763 60.5781Z" stroke="url(#paint26_linear_1_742)" stroke-width="0.8214" stroke-miterlimit="10" stroke-linecap="round"/>
<path d="M22.0099 60.5738C21.997 60.5734 21.9839 60.5731 21.971 60.5724C21.9842 60.5728 21.997 60.5734 22.0099 60.5738Z" stroke="url(#paint27_linear_1_742)" stroke-width="0.8214" stroke-miterlimit="10" stroke-linecap="round"/>
<path d="M21.6558 60.5581C21.642 60.5575 21.6281 60.5565 21.6142 60.5558" stroke="url(#paint28_linear_1_742)" stroke-width="0.8214" stroke-miterlimit="10" stroke-linecap="round"/>
<path d="M31.9219 57.7129C31.6841 57.644 31.4603 57.5528 31.3524 57.4376C31.3524 57.4376 30.2436 58.496 29.3792 58.6325C28.5152 58.769 23.9899 58.3935 22.374 57.4376C22.374 57.4376 22.7329 58.3252 24.6007 59.1446C25.5162 59.5462 26.9753 60.0439 28.2249 60.4468C31.4953 59.9131 31.9219 57.7129 31.9219 57.7129Z" fill="url(#paint29_linear_1_742)"/>
<path d="M29.7044 52.4255C29.6665 52.05 29.8518 51.726 30.1183 51.7017C30.3849 51.6774 30.6318 51.9621 30.6696 52.3373" stroke="#0D1333" stroke-width="0.8214" stroke-miterlimit="10" stroke-linecap="round" stroke-linejoin="round"/>
<path d="M23.0778 54.2967C23.0228 53.7523 23.2918 53.2825 23.6781 53.2472C24.0647 53.2119 24.4223 53.6248 24.4773 54.1691" stroke="#0D1333" stroke-width="0.8214" stroke-miterlimit="10" stroke-linecap="round" stroke-linejoin="round"/>
<path d="M22.0052 52.3571C21.9974 52.1154 22.0861 51.9226 22.2205 51.7482C22.3578 51.5787 22.554 51.4429 22.7806 51.3676C23.0051 51.2904 23.2607 51.278 23.4852 51.3423C23.7118 51.4009 23.9055 51.5304 24.0326 51.7202C24.0852 51.7991 24.0606 51.9033 23.978 51.9533C23.9696 51.9583 23.9612 51.9626 23.9524 51.9659L23.929 51.9752C23.722 52.0578 23.5731 52.0911 23.4446 52.1427L23.1077 52.2579L22.7483 52.3681C22.61 52.4064 22.4534 52.461 22.2507 52.4993L22.2048 52.508C22.1144 52.5253 22.0262 52.4693 22.0083 52.3834C22.0066 52.3748 22.0055 52.3655 22.0052 52.3571Z" fill="url(#paint30_linear_1_742)"/>
<path d="M28.9355 50.6085C28.9176 50.4144 28.9806 50.2609 29.0822 50.1214C29.1859 49.9862 29.3386 49.8776 29.5165 49.8184C29.873 49.6935 30.3101 49.8031 30.4866 50.121C30.529 50.1976 30.4982 50.2922 30.4176 50.3325L30.4166 50.3331L30.3966 50.3428C30.2359 50.4207 30.1259 50.455 30.0345 50.5003C29.9434 50.5362 29.8758 50.5692 29.8009 50.5925C29.7266 50.6165 29.6447 50.6358 29.541 50.6601C29.4363 50.6814 29.3141 50.7147 29.1491 50.732L29.1008 50.737C29.0188 50.7456 28.9449 50.6894 28.9358 50.6115C28.9358 50.6108 28.9355 50.6095 28.9355 50.6085Z" fill="url(#paint31_linear_1_742)"/>
<path d="M29.9349 54.9803L30.5051 54.8338C30.9751 54.7133 31.4689 54.706 31.9424 54.8125L32.1308 54.8548C32.1308 54.8548 32.2317 55.6968 31.3435 56.1293C31.3435 56.1293 30.1811 55.9249 29.9349 54.9803Z" fill="url(#paint32_linear_1_742)"/>
<path d="M31.3427 56.1304L31.3519 57.4392" stroke="url(#paint33_linear_1_742)" stroke-width="0.8214" stroke-miterlimit="10" stroke-linecap="round"/>
<path d="M33.2704 60.513C32.9811 60.0315 32.6323 59.6403 32.018 59.316C30.8784 58.7144 29.379 58.6328 29.379 58.6328C28.6905 58.7417 25.6782 58.5249 23.6647 57.9486C23.5551 58.9031 28.4071 60.0665 29.9345 60.6548C31.4618 61.2431 32.1315 62.6605 32.4747 62.6455C33.5016 62.6002 34.1386 61.9576 33.2704 60.513Z" fill="#FF7694"/>
<path d="M30.6735 58.8336C29.9601 58.6644 29.379 58.6328 29.379 58.6328C28.6905 58.7417 25.6782 58.5249 23.6647 57.9486C23.6143 58.3874 24.6121 58.8698 25.8529 59.3207C27.2167 59.4638 29.3752 59.5417 30.6735 58.8336Z" fill="#FF5278"/>
<path d="M4.10411 74.9871V94.6634H43.8039V74.9871H4.81017H4.10411Z" fill="#D09460"/>
<path d="M3.58945 71.6787L1.91956 79.6885L46.0757 80.5592L44.7266 71.6787H3.58945Z" fill="#E1AB7D"/>
<path d="M7.93311 83.9173L8.65108 89.8472L40.2126 88.5084L40.4052 82.747L7.93311 83.9173Z" fill="#FCF5ED"/>
<path d="M11.5555 87.6123L11.1863 87.6245L12.158 84.6817L12.5214 84.6697L13.685 87.542L13.3159 87.5542L12.3662 85.1353L12.3435 85.1361L11.5555 87.6123ZM11.6543 86.472L13.1421 86.4229L13.1524 86.7353L11.6646 86.7844L11.6543 86.472ZM14.9173 87.5468C14.7356 87.5528 14.5737 87.5122 14.4315 87.425C14.2893 87.3368 14.1762 87.2098 14.0921 87.0439C14.0079 86.8771 13.962 86.6782 13.9544 86.4473C13.9469 86.2183 13.9796 86.0182 14.0526 85.8471C14.1256 85.6761 14.2306 85.5423 14.3676 85.4459C14.5047 85.3495 14.665 85.2982 14.8486 85.2922C14.9906 85.2875 15.1035 85.3074 15.1874 85.3521C15.2722 85.3957 15.3374 85.4466 15.3829 85.5048C15.4293 85.562 15.4655 85.6091 15.4913 85.6462L15.5197 85.6452L15.4843 84.572L15.8193 84.5609L15.9153 87.4684L15.5916 87.4791L15.5806 87.144L15.5408 87.1454C15.5175 87.1859 15.4841 87.2372 15.4407 87.2993C15.3972 87.3604 15.3342 87.416 15.2515 87.4661C15.1688 87.5153 15.0574 87.5422 14.9173 87.5468ZM14.9528 87.2443C15.0872 87.2399 15.1997 87.2011 15.2901 87.128C15.3805 87.054 15.4478 86.9537 15.4919 86.8272C15.536 86.6997 15.5554 86.5536 15.5499 86.389C15.5446 86.2262 15.5162 86.0845 15.4649 85.964C15.4135 85.8425 15.3403 85.7492 15.2453 85.6841C15.1502 85.6181 15.0346 85.5873 14.8983 85.5918C14.7563 85.5965 14.6392 85.6369 14.547 85.7129C14.4557 85.7879 14.3884 85.8882 14.3452 86.0137C14.3028 86.1383 14.2842 86.2772 14.2893 86.4306C14.2944 86.5858 14.3227 86.726 14.3742 86.8513C14.4266 86.9756 14.5009 87.0736 14.5971 87.1452C14.6942 87.2159 14.8128 87.249 14.9528 87.2443ZM17.4628 87.4628C17.266 87.4693 17.0917 87.4282 16.94 87.3394C16.7893 87.2505 16.6695 87.1233 16.5806 86.9575C16.4927 86.7918 16.4451 86.5963 16.4376 86.371C16.4301 86.1439 16.4648 85.9442 16.5415 85.7721C16.6192 85.5999 16.7303 85.4646 16.8749 85.366C17.0204 85.2674 17.1916 85.2148 17.3884 85.2084C17.5853 85.2019 17.7591 85.243 17.9098 85.3318C18.0615 85.4206 18.1813 85.5484 18.2693 85.7151C18.3581 85.8818 18.4063 86.0787 18.4138 86.3058C18.4213 86.5311 18.3861 86.7293 18.3084 86.9005C18.2316 87.0717 18.1205 87.2066 17.975 87.3052C17.8304 87.4038 17.6597 87.4563 17.4628 87.4628ZM17.4529 87.1618C17.6024 87.1569 17.7242 87.1145 17.8182 87.0347C17.9122 86.9548 17.9804 86.8517 18.0226 86.7252C18.0649 86.5987 18.0836 86.4626 18.0788 86.3169C18.074 86.1711 18.0463 86.0361 17.9958 85.9117C17.9452 85.7874 17.8704 85.688 17.7713 85.6136C17.6722 85.5391 17.5479 85.5044 17.3984 85.5093C17.2488 85.5143 17.1271 85.5571 17.0331 85.6379C16.9391 85.7187 16.871 85.8228 16.8288 85.9502C16.7866 86.0776 16.7679 86.2142 16.7727 86.36C16.7775 86.5057 16.8051 86.6403 16.8556 86.7637C16.9061 86.8871 16.9809 86.9855 17.08 87.059C17.1791 87.1325 17.3034 87.1668 17.4529 87.1618ZM18.9879 88.1856L18.8889 85.1873L19.2126 85.1766L19.224 85.523L19.2638 85.5217C19.2871 85.483 19.3196 85.4336 19.3612 85.3735C19.4037 85.3124 19.4654 85.2573 19.5462 85.2082C19.6279 85.1581 19.7398 85.1308 19.8817 85.1261C20.0654 85.12 20.2287 85.1606 20.3718 85.2478C20.5149 85.3349 20.6285 85.4615 20.7126 85.6273C20.7968 85.7932 20.8426 85.9907 20.8502 86.2197C20.8578 86.4507 20.8251 86.6521 20.7521 86.8241C20.6791 86.9952 20.5746 87.1294 20.4385 87.2267C20.3025 87.3231 20.1435 87.3743 19.9618 87.3803C19.8217 87.385 19.7088 87.3655 19.6231 87.3219C19.5373 87.2773 19.4707 87.226 19.4233 87.1679C19.3758 87.1088 19.3392 87.0598 19.3132 87.0208L19.2849 87.0218L19.3229 88.1746L18.9879 88.1856ZM19.2542 86.2667C19.2597 86.4314 19.2886 86.5759 19.341 86.7002C19.3934 86.8235 19.4672 86.9191 19.5623 86.987C19.6573 87.054 19.7721 87.0853 19.9065 87.0809C20.0465 87.0762 20.1622 87.0355 20.2535 86.9586C20.3456 86.8807 20.4133 86.778 20.4565 86.6506C20.5006 86.5221 20.52 86.3803 20.5149 86.2251C20.5099 86.0718 20.4816 85.9344 20.4303 85.8129C20.3798 85.6904 20.306 85.5948 20.209 85.526C20.1129 85.4562 19.9939 85.4237 19.8519 85.4284C19.7156 85.4328 19.6023 85.4712 19.5118 85.5433C19.4213 85.6145 19.3544 85.7124 19.3111 85.837C19.2678 85.9607 19.2489 86.1039 19.2542 86.2667ZM22.2734 85.0756L22.2828 85.3595L21.1527 85.3968L21.1434 85.1129L22.2734 85.0756ZM21.4555 84.5795L21.7905 84.5685L21.8591 86.6469C21.8622 86.7415 21.8783 86.8121 21.9073 86.8585C21.9372 86.9039 21.9742 86.934 22.0183 86.9486C22.0633 86.9623 22.1104 86.9683 22.1596 86.9667C22.1965 86.9655 22.2267 86.9626 22.2503 86.958C22.2738 86.9525 22.2926 86.9481 22.3067 86.9448L22.3848 87.2435C22.3623 87.2528 22.3309 87.2624 22.2905 87.2722C22.2501 87.283 22.1987 87.2895 22.1362 87.2915C22.0416 87.2946 21.9481 87.2774 21.8559 87.2397C21.7647 87.2019 21.6879 87.1424 21.6255 87.0611C21.5641 86.9797 21.5313 86.8756 21.5271 86.7488L21.4555 84.5795ZM23.9738 87.2024L23.9018 85.0218L24.2255 85.0111L24.2367 85.3519L24.2651 85.3509C24.3067 85.233 24.3771 85.1402 24.4762 85.0725C24.5753 85.0039 24.6959 84.9672 24.8378 84.9625C24.9817 84.9578 25.1025 84.9865 25.2003 85.0486C25.2989 85.1098 25.3771 85.1977 25.4349 85.3123L25.4577 85.3116C25.5098 85.1971 25.5906 85.1049 25.7001 85.035C25.8095 84.9641 25.9424 84.926 26.0985 84.9209C26.2935 84.9145 26.455 84.9702 26.583 85.0882C26.711 85.2053 26.7792 85.3921 26.7877 85.6486L26.8358 87.108L26.5008 87.119L26.4526 85.6596C26.4473 85.4987 26.3995 85.3852 26.3092 85.319C26.2189 85.2528 26.1141 85.2217 25.9949 85.2256C25.8416 85.2307 25.7243 85.281 25.6431 85.3765C25.5619 85.4711 25.5237 85.5889 25.5283 85.7299L25.5752 87.1496L25.2344 87.1608L25.1852 85.6673C25.1811 85.5434 25.1375 85.4448 25.0546 85.3718C24.9716 85.2978 24.8667 85.2628 24.7399 85.267C24.6528 85.2699 24.5722 85.2958 24.498 85.3447C24.4248 85.3935 24.3663 85.4599 24.3226 85.5437C24.2799 85.6266 24.2603 85.7215 24.2638 85.8285L24.3088 87.1914L23.9738 87.2024ZM28.3642 87.103C28.1541 87.11 27.9713 87.0696 27.8159 86.9818C27.6614 86.8931 27.5402 86.7664 27.4523 86.6016C27.3653 86.4358 27.3182 86.2412 27.3108 86.0179C27.3034 85.7945 27.3376 85.5963 27.4134 85.4233C27.4901 85.2492 27.6002 85.112 27.7437 85.0116C27.8882 84.9102 28.0589 84.8562 28.2557 84.8497C28.3693 84.846 28.4821 84.8612 28.5941 84.8954C28.7061 84.9296 28.8089 84.9878 28.9026 85.07C28.9962 85.1512 29.0723 85.2605 29.1308 85.3978C29.1894 85.5352 29.222 85.7056 29.2287 85.9091L29.2334 86.0511L27.5525 86.1065L27.5429 85.8169L28.8831 85.7727C28.879 85.6497 28.8508 85.5407 28.7984 85.4458C28.747 85.3508 28.6754 85.2769 28.5836 85.224C28.4928 85.1711 28.3868 85.1467 28.2657 85.1507C28.1322 85.1551 28.0178 85.192 27.9225 85.2615C27.8282 85.33 27.7567 85.4176 27.7081 85.5244C27.6595 85.6312 27.6372 85.7446 27.6412 85.8648L27.6475 86.0579C27.653 86.2226 27.686 86.3613 27.7465 86.4739C27.808 86.5856 27.8908 86.6695 27.995 86.7258C28.0992 86.7811 28.2189 86.8065 28.3543 86.8021C28.4423 86.7992 28.5214 86.7842 28.5916 86.7573C28.6627 86.7293 28.7234 86.6894 28.7738 86.6376C28.8242 86.5847 28.8623 86.52 28.8882 86.4433L29.2149 86.5235C29.1844 86.6344 29.1304 86.7329 29.0527 86.8188C28.9749 86.9038 28.8777 86.9714 28.7609 87.0217C28.6441 87.0711 28.5119 87.0982 28.3642 87.103ZM30.1223 84.0889L30.1629 86.1796L29.8335 86.1904L29.7361 84.1016L30.1223 84.0889ZM30.0259 87.0255C29.9559 87.0278 29.8949 87.0047 29.8431 86.9562C29.7913 86.9077 29.7642 86.8484 29.7619 86.7783C29.7596 86.7083 29.7827 86.6474 29.8312 86.5956C29.8797 86.5437 29.939 86.5167 30.009 86.5144C30.0791 86.5121 30.14 86.5352 30.1918 86.5837C30.2436 86.6322 30.2707 86.6914 30.273 86.7615C30.2745 86.8079 30.2641 86.8508 30.2417 86.8904C30.2203 86.93 30.1906 86.9622 30.1526 86.9872C30.1154 87.0111 30.0732 87.0239 30.0259 87.0255Z" fill="#10161E"/>
<path d="M15.3362 71.203C15.3362 71.203 15.9183 73.0961 22.0455 73.8825L22.6276 68.6985L20.5445 68.4654L17.3889 68.844L15.3362 71.203Z" fill="#ED983B"/>
<path d="M25.8289 76.5125C27.1699 76.5125 27.0239 74.933 26.5315 71.774C26.0671 68.7951 25.2825 68.7238 22.4415 68.6556C21.9021 69.0022 21.195 69.705 21.2283 70.9979C21.2497 71.8303 21.4889 72.8797 21.768 73.8396C22.5252 73.9145 23.0344 73.9352 23.0344 73.9352C23.0344 73.9352 24.4879 76.5125 25.8289 76.5125Z" fill="#FCF5ED"/>
<path d="M19.3192 65.4827C19.6379 66.8128 18.6211 68.5585 21.9052 68.6417C25.189 68.725 26.0407 68.6141 26.5332 71.7731C27.0256 74.9321 27.1716 76.5116 25.8306 76.5116C24.4896 76.5116 23.0361 73.9346 23.0361 73.9346C23.0361 73.9346 16.5075 73.6706 15.426 71.5903" stroke="url(#paint34_linear_1_742)" stroke-miterlimit="10" stroke-linecap="round"/>
<path d="M34.747 72.0775C34.747 72.0775 34.3278 71.1076 34.4189 70.1101" stroke="url(#paint35_linear_1_742)" stroke-miterlimit="10" stroke-linecap="round"/>
<path d="M38.5927 72.8057C38.5836 72.559 38.5626 72.2873 38.5314 71.9913C38.4694 71.399 38.3679 70.7078 38.2449 69.918C38.2278 69.8088 38.2092 69.7116 38.1914 69.61C37.7189 67.1336 36.5162 66.8998 34.1151 66.8279C33.5813 67.1832 32.9092 67.88 32.9414 69.1422C32.9628 69.9746 32.8879 70.7397 33.167 71.6996C33.9238 71.7745 34.7476 72.0795 34.7476 72.0795C34.7476 72.0795 35.0256 72.573 35.4512 73.1276C35.7548 73.5242 36.1338 73.9517 36.5397 74.254C36.7022 74.3749 36.8689 74.4754 37.037 74.546C37.2051 74.6166 37.3746 74.6569 37.542 74.6569C38.3805 74.6569 38.6376 74.0399 38.5927 72.8057Z" fill="#FCF5ED"/>
<path d="M34.747 72.0775C34.747 72.0775 34.3278 71.1076 34.4189 70.1101" stroke="url(#paint36_linear_1_742)" stroke-miterlimit="10" stroke-linecap="round"/>
<path d="M95.5935 8.16742C95.0538 3.619 89.7216 2.61915 89.7142 2.58819C89.0712 -0.624774 84.7084 -0.354752 81.8632 0.77661L83.3114 1.71852C83.3114 1.71852 76.4514 1.42852 75.613 5.70393C75.0488 8.58128 75.911 8.08685 75.621 10.4375C75.2551 13.4041 76.6094 16.6263 78.8607 16.6263C78.8565 16.613 78.8537 16.598 78.8494 16.5847C77.8534 13.3478 78.7584 8.29028 79.0148 7.57411C81.0093 8.94619 85.3921 7.75989 87.2332 6.94383C87.2395 7.84779 88.2965 10.1485 89.8256 11.8325L90.3131 15.5329L90.5877 17.6175C95.1631 16.8118 95.9511 11.1796 95.5935 8.16742Z" fill="url(#paint37_linear_1_742)"/>
<path d="M80.2385 14.7748C80.2458 16.0477 79.1664 17.0851 77.8272 17.0921C76.4882 17.0991 75.3969 16.0726 75.3896 14.7998C75.3822 13.5269 76.462 12.4894 77.8009 12.4824C79.1398 12.4754 80.2311 13.5019 80.2385 14.7748Z" fill="#FECEAA"/>
<path d="M77.2258 13.4045C77.2258 13.4045 76.2298 14.5179 77.3323 15.5061" stroke="#0D1333" stroke-miterlimit="10" stroke-linecap="round" stroke-linejoin="round"/>
<path d="M87.439 90.8524C89.0535 91.0892 89.4518 91.0449 96.8829 90.1353C104.314 89.2257 112.242 93.2234 113.338 91.7148C114.433 90.2062 110.047 88.2132 107.305 86.8114C104.562 85.4097 103.781 82.521 101.577 81.9713C99.3741 81.4217 98.6393 83.5043 87.439 83.8602V90.8524Z" fill="#FECEAA"/>
<path d="M55.999 77.9417C55.8652 79.053 57.9333 86.1858 55.6512 87.4846C53.1863 88.8877 45.67 89.5093 46.0658 91.776C46.3312 93.2976 47.4369 93.9878 52.614 93.1584C59.7776 92.0108 61.9122 93.2903 63.449 92.7316C65.8533 91.8579 65.079 89.5146 64.2101 85.6095C63.5366 82.5816 63.1836 78.838 63.0946 77.9413H55.999V77.9417Z" fill="#FECEAA"/>
<path d="M65.0903 94.666H42.5429C42.5429 94.666 41.9209 93.7903 42.7005 93.2513L65.0906 92.5105C65.0906 92.5105 66.5781 93.184 65.0903 94.666Z" fill="white"/>
<path d="M64.6654 87.9431C64.0784 88.4612 62.9297 89.2766 61.5067 89.2766C59.4221 89.2766 57.5092 86.5148 57.5092 86.5148L56.8007 85.3698C56.8007 85.3698 55.7377 85.1676 55.3129 86.5148C55.3129 86.5148 43.0553 91.8363 42.7008 92.1729C42.3464 92.5099 42.7008 93.2507 42.7008 93.2507L65.0909 92.5099V87.5253C65.0909 87.5253 64.9382 87.7021 64.6654 87.9431Z" fill="url(#paint38_linear_1_742)"/>
<path d="M55.3112 86.5145C55.3112 86.5145 55.3319 82.7761 54.0284 83.3485C52.7252 83.9212 55.3112 86.5145 55.3112 86.5145Z" stroke="white" stroke-miterlimit="10" stroke-linecap="round" stroke-linejoin="round"/>
<path d="M55.3116 86.5145C55.3116 86.5145 52.4422 84.4722 51.8398 85.3585C51.2374 86.2448 55.3116 86.5145 55.3116 86.5145Z" stroke="white" stroke-miterlimit="10" stroke-linecap="round" stroke-linejoin="round"/>
<path d="M54.2184 86.9918L55.6659 89.0421" stroke="white" stroke-width="2" stroke-miterlimit="10" stroke-linecap="round" stroke-linejoin="round"/>
<path d="M52.3689 87.8498L53.8164 89.9001" stroke="white" stroke-width="2" stroke-miterlimit="10" stroke-linecap="round" stroke-linejoin="round"/>
<path d="M64.399 80.005C63.6922 77.2851 64.1573 66.1403 63.972 64.0521C63.7528 61.5849 80.4391 71.5028 85.8382 68.2406C85.8382 68.2406 83.8983 58.8764 87.4395 52.7454L83.0966 51.6154C83.0966 51.6154 59.8642 47.6073 55.6194 48.3788C51.375 49.1502 50.4861 53.0437 52.7997 64.3131C53.6498 68.4533 55.3322 79.2052 55.0521 80.005C55.0521 80.005 60.8469 81.7823 64.399 80.005Z" fill="#A06B44"/>
<path d="M85.838 68.2415C85.838 68.2415 83.8981 58.8773 87.4393 52.7463L83.0964 51.6163C83.0964 51.6163 75.9339 50.3807 68.8365 49.4139C70.1261 53.2231 73.2396 62.7781 73.4543 66.8001C78.1316 68.4209 83.2992 69.7754 85.838 68.2415Z" fill="url(#paint39_linear_1_742)"/>
<path d="M92.324 90.7346C83.2703 92.3554 69.0321 94.2658 67.6921 94.0694C66.0775 93.8327 63.0386 92.3597 63.9849 88.2061C64.4609 86.1166 69.7711 77.1456 73.0944 73.0629C76.4177 68.9803 81.4239 62.5424 82.8048 59.9424C84.1858 57.3421 84.0881 53.8707 86.3173 52.456C86.3173 52.456 98.1525 56.0359 100.778 56.0189C100.778 56.0189 99.4922 58.3709 99.3493 60.3173C99.2102 62.2138 101.718 68.4749 90.5249 76.2263C87.7991 78.1138 82.6994 82.6063 84.3357 83.1087C85.3664 83.4253 88.7881 83.3874 91.5994 83.2845C92.7461 85.4693 93.0388 87.9704 92.4256 90.3417L92.324 90.7346Z" fill="#A06B44"/>
<path d="M98.8016 60.3205C98.8016 60.3205 97.8973 67.2109 90.6956 73.2619C84.88 78.1483 80.077 82.7573 81.1785 83.8893C82.9678 85.7282 92.1003 84.4037 92.1003 84.4037" stroke="#0D1333" stroke-miterlimit="10"/>
<path d="M92.6639 58.7875C93.9159 59.3845 97.3366 59.7012 98.8013 60.3208C98.8013 60.3208 98.8822 62.1407 97.539 64.3208C97.539 64.3208 93.5881 64.5825 90.6952 63.1342C91.5862 61.6556 92.3753 59.6988 92.6639 58.7875Z" fill="#47273E"/>
<path d="M76.5625 51.3445L78.6092 50.2338C78.9983 50.5668 79.4298 50.8901 79.9796 51.3216C78.7727 52.36 77.7056 53.5999 76.9544 54.5598C76.2942 53.9958 76.221 51.7514 76.5625 51.3445Z" fill="#47273E"/>
<path d="M85.4264 55.1496C87.0536 56.1901 88.9427 57.2635 91.1698 58.3749L91.1684 58.3742C90.7054 59.6694 89.7791 61.3032 89.1444 62.354C88.0661 62.1592 84.5312 60.4142 82.6722 59.3092C80.6332 58.0972 79.447 57.2945 78.2215 55.5981C79.302 54.1798 80.5383 52.8812 81.1771 52.235C82.3213 53.0837 83.7254 54.0626 85.4264 55.1496Z" fill="#47273E"/>
<path d="M85.426 55.1504C84.5 54.5584 83.6696 54.0021 82.9138 53.478C81.6785 55.0352 80.6944 56.642 80.133 57.6286C80.8397 58.1956 81.6484 58.7013 82.6721 59.3096C83.3999 59.7421 84.3844 60.2722 85.3776 60.7696L87.8527 56.6084C86.9859 56.1156 86.1744 55.6292 85.426 55.1504Z" fill="#ED8D1B"/>
<path d="M79.9806 64.1908C79.9806 64.1908 64.42 60.4588 62.7347 62.3553C61.4059 63.8502 63.0387 80.5007 63.0387 80.5007" stroke="#0D1333" stroke-miterlimit="10"/>
<path d="M78.2211 34.289C80.625 28.1168 79.3145 23.8208 79.3145 23.8208C75.6647 23.6563 65.8632 37.0881 63.806 38.621C62.4604 39.6235 52.9254 46.3301 51.6888 48.0238L55.4888 54.0159C63.4862 50.4148 69.7914 45.0206 69.7914 45.0206C69.7914 45.0206 75.8171 40.4612 78.2211 34.289Z" fill="#5084D8"/>
<path d="M45.6949 50.9231C44.9681 51.311 46.5126 53.1375 47.4765 54.1637C48.4403 55.1895 49.5831 56.3595 50.2685 55.8884C50.4513 54.1037 49.1159 51.1535 45.6949 50.9231Z" fill="#47273E"/>
<path d="M52.5192 48.7698C50.1727 50.3763 47.9389 51.9671 47.9389 51.9671C47.5537 51.8296 44.6142 50.8328 42.212 51.4713C39.6364 52.1559 35.9446 56.4636 35.863 57.7727C35.7814 59.0822 37.2296 58.3251 37.9024 57.1591C38.5755 55.9931 37.8761 58.6827 39.2844 58.9164C39.5373 58.9584 39.7544 58.8731 39.9404 58.705C39.9404 58.705 40.1705 59.7538 41.2713 59.0965C41.2713 59.0965 43.0515 60.0198 43.6931 59.0932C44.3347 58.1663 42.718 58.4833 43.1737 58.0561C43.6293 57.6292 44.4156 57.5087 45.2558 57.4598C47.2241 57.3449 47.4234 56.2788 48.363 55.84C49.9247 55.1108 52.5465 53.9984 55.4446 52.678" fill="#FECEAA"/>
<path d="M55.8935 53.7861C55.4508 54.1577 51.6669 55.5724 50.2671 55.8884C50.4502 54.1037 49.1148 51.1535 45.6934 50.9231C45.6934 50.9231 48.8451 49.1708 50.5851 48.4376C51.0449 48.2438 51.4386 48.092 51.6879 48.0244C51.6879 48.0244 52.3415 47.7354 54.6635 50.2016C57.0006 52.6837 55.8935 53.7861 55.8935 53.7861Z" fill="white"/>
<path d="M41.0205 53.6113C41.0205 53.6113 39.8473 56.2066 41.3732 56.1134C42.3066 56.0565 42.8673 53.9402 44.0696 53.017" stroke="#0D1333" stroke-miterlimit="10" stroke-linecap="round" stroke-linejoin="round"/>
<path d="M39.941 58.706C40.3563 58.3088 41.7383 57.1695 41.5555 56.6411C41.4641 56.3771 40.9111 56.0118 40.5892 56.2832C40.1732 56.6341 39.2377 57.4688 39.2377 57.4688" stroke="#0D1333" stroke-miterlimit="10" stroke-linecap="round" stroke-linejoin="round"/>
<path d="M41.2718 59.0984C41.2718 59.0984 42.8926 57.4816 42.4955 57.143C42.0983 56.8044 41.4294 57.1456 41.4294 57.1456" stroke="#0D1333" stroke-miterlimit="10" stroke-linecap="round" stroke-linejoin="round"/>
<path d="M42.0291 59.3901C42.0291 59.3901 43.4226 59.8399 43.7452 59.0129C44.0674 58.1858 43.4006 58.3347 42.5597 57.8369" stroke="#0D1333" stroke-miterlimit="10" stroke-linecap="round" stroke-linejoin="round"/>
<path d="M38.1455 56.8714C39.0179 55.7567 39.9516 55.194 39.9516 55.194" stroke="#0D1333" stroke-miterlimit="10" stroke-linecap="round" stroke-linejoin="round"/>
<path d="M88.5482 63.0137L88.5486 63.0133C88.5683 63.0232 88.5705 63.0246 88.5482 63.0137Z" fill="#47273E"/>
<path d="M76.9077 26.5904C75.5824 29.5413 75.553 40.0932 75.9179 43.7829C76.3627 48.2794 75.4871 50.8328 80.5819 55.5846C82.7306 57.5887 96.4147 63.5781 100.205 60.0438C103.995 56.5096 102.118 43.9294 101.185 40.6142C100.079 36.6834 99.8252 32.9321 97.1144 26.1549C95.868 23.0388 92.5341 22.3436 84.7118 22.4229C82.0644 22.4495 78.4199 23.2226 76.9077 26.5904Z" fill="#598EF6"/>
<path d="M87.2321 6.9447C85.391 7.76076 81.0082 8.9474 79.0137 7.57498C78.7573 8.29115 77.8523 13.3487 78.8483 16.5856C79.3688 18.0319 80.2759 19.3291 81.792 20.1741C82.2487 20.4288 82.7208 20.591 83.1887 20.6982C86.6423 21.4909 90.0886 18.8203 90.6475 18.0749L90.3127 15.5338L89.8252 11.8334C88.2954 10.1493 87.2384 7.84866 87.2321 6.9447Z" fill="#FECEAA"/>
<path d="M83.1367 24.8316C83.2667 23.5012 83.3787 22.3535 83.1889 20.6981C86.6425 21.4908 90.0888 18.8202 90.6477 18.0748L91.3286 23.5385C91.3286 23.5385 91.2417 25.6177 87.2348 26.4814C83.1325 27.3657 83.1367 24.8316 83.1367 24.8316Z" fill="#FECEAA"/>
<path d="M83.1889 20.6981C83.3044 21.7062 83.3097 22.8 83.267 23.8018C84.892 23.7346 89.1116 23.2075 90.8529 19.6513L90.6477 18.0748C90.0887 18.8202 86.6425 21.4908 83.1889 20.6981Z" fill="#EAB48F"/>
<path d="M81.3246 9.92981C80.9271 10.2894 80.6959 10.948 80.6959 10.948" stroke="#0D1333" stroke-miterlimit="10" stroke-linecap="round" stroke-linejoin="round"/>
<path d="M86.3259 9.75869C86.7494 10.0903 87.0296 10.7316 87.0296 10.7316" stroke="#0D1333" stroke-miterlimit="10" stroke-linecap="round" stroke-linejoin="round"/>
<path d="M83.6487 17.8074C83.6487 17.8074 84.6384 18.1504 85.4516 17.3546" stroke="#0D1333" stroke-miterlimit="10" stroke-linecap="round" stroke-linejoin="round"/>
<path d="M79.6718 50.0702C79.6718 50.0702 85.7966 53.1992 88.7778 50.9199C91.7589 48.6405 94.3622 35.9268 97.129 35.4983L79.6718 50.0702Z" fill="#598EF6"/>
<path d="M89.3235 14.1788C89.7592 15.3824 91.1391 16.0223 92.4052 15.6078C93.6713 15.1936 94.3441 13.8818 93.9084 12.6782C93.4723 11.4746 92.0928 10.8346 90.8267 11.2492C89.5607 11.6637 88.8875 12.9752 89.3235 14.1788Z" fill="#FECEAA"/>
<path d="M91.3801 12.1948C91.3801 12.1948 92.7072 12.9326 92.0102 14.2115" stroke="#0D1333" stroke-miterlimit="10" stroke-linecap="round" stroke-linejoin="round"/>
<path d="M97.1282 37.0229C94.6076 35.9615 89.3251 48.5996 86.2014 50.2344C83.0777 51.8691 68.9845 46.6435 68.097 45.9766C67.2099 45.3097 68.1478 41.3063 69.4079 40.6171C70.668 39.9276 78.8988 43.0017 81.046 42.9791C83.1933 42.9564 85.0232 37.2047 86.6434 32.9646C87.9049 29.6627 92.0222 23.4086 96.9254 25.7393" fill="#598EF6"/>
<path d="M66.496 38.916C66.496 38.916 64.9855 43.0229 66.303 45.5134C66.303 45.5134 67.7068 44.7523 67.8388 42.341C67.9712 39.9295 66.496 38.916 66.496 38.916Z" fill="#47273E"/>
<path d="M70.5859 41.1995C68.7913 40.7767 67.9529 39.3367 64.5973 38.9961C62.0158 38.734 58.0025 39.042 55.394 41.0241C54.6624 41.5798 53.4793 42.5889 53.4842 43.5262C53.4842 43.5262 53.4289 44.556 56.0083 42.7771C58.5878 40.9981 59.5726 41.0544 59.5726 41.0544C59.5726 41.0544 56.4801 43.12 58.2617 44.5087C58.7541 44.8926 58.9173 44.5337 59.0634 44.7971C59.6472 45.8515 61.5122 46.6299 62.3853 46.0403C63.4847 45.2981 62.7744 44.7644 62.7744 44.7644C62.7744 44.7644 65.1489 45.142 66.2049 44.5417C67.2608 43.9414 69.5566 44.7891 69.5566 44.7891C69.5566 44.7891 72.1244 41.5618 70.5859 41.1995Z" fill="#FECEAA"/>
<path d="M59.1311 44.6532C59.1311 44.6532 59.3647 42.2533 60.8094 41.5874" stroke="#0D1333" stroke-miterlimit="10" stroke-linecap="round" stroke-linejoin="round"/>
<path d="M60.1215 45.5136C60.1215 45.5136 60.3551 43.1137 61.7998 42.4478" stroke="#0D1333" stroke-miterlimit="10" stroke-linecap="round" stroke-linejoin="round"/>
<path d="M62.7734 44.7643C62.7734 44.7643 62.6743 44.2689 61.7987 44.756" stroke="#0D1333" stroke-miterlimit="10" stroke-linecap="round" stroke-linejoin="round"/>
<path d="M97.1282 37.0239C94.6076 35.9624 89.3251 48.6005 86.2014 50.2353C83.0777 51.8701 68.9845 46.6444 68.097 45.9776C67.2099 45.3107 68.1478 41.3073 69.4079 40.6181C70.668 39.9285 78.8988 43.0027 81.046 42.98C83.1933 42.9574 85.0232 37.2057 86.6434 32.9656C87.5613 30.5633 89.9905 26.5986 93.1342 25.5138" stroke="#0D1333" stroke-width="0.5" stroke-miterlimit="10" stroke-linecap="round" stroke-linejoin="round"/>
<path d="M71.9347 47.605C71.3442 47.5917 67.5568 46.1856 66.3037 45.5134C67.7134 44.3221 68.8422 41.2949 66.4967 38.916C66.4967 38.916 70.0617 39.6658 71.8622 40.2518C72.3382 40.4066 72.7353 40.5494 72.9668 40.661C72.9668 40.661 73.6526 40.8711 73.5941 44.1806C73.5352 47.5118 71.9347 47.605 71.9347 47.605Z" fill="white"/>
<path d="M100.875 77.977L116.819 93.1338C116.819 93.1338 116.607 94.171 115.655 94.0281L99.2718 79.5009C99.2718 79.5009 98.7209 78.0246 100.875 77.977Z" fill="white"/>
<path d="M96.1757 83.0154C96.976 83.0437 98.3948 83.2395 99.401 84.196C100.875 85.5974 100.174 88.8363 100.174 88.8363L99.823 90.1222C99.823 90.1222 100.424 90.9795 101.727 90.3126C101.727 90.3126 114.353 94.7898 114.853 94.7898C115.355 94.7898 115.655 94.0277 115.655 94.0277L99.2718 79.5004L95.5642 83.025C95.5642 83.025 95.8035 83.0021 96.1757 83.0154Z" fill="url(#paint40_linear_1_742)"/>
<path d="M101.727 90.3144C101.727 90.3144 98.931 92.9437 100.279 93.4151C101.626 93.8866 101.727 90.3144 101.727 90.3144Z" stroke="white" stroke-miterlimit="10" stroke-linecap="round" stroke-linejoin="round"/>
<path d="M101.727 90.3144C101.727 90.3144 102.237 93.6875 103.322 93.4654C104.407 93.2437 101.727 90.3144 101.727 90.3144Z" stroke="white" stroke-miterlimit="10" stroke-linecap="round" stroke-linejoin="round"/>
<path d="M102.853 90.7123L103.354 88.2895" stroke="white" stroke-width="2" stroke-miterlimit="10" stroke-linecap="round" stroke-linejoin="round"/>
<path d="M104.8 91.3489L105.301 88.9264" stroke="white" stroke-width="2" stroke-miterlimit="10" stroke-linecap="round" stroke-linejoin="round"/>
<defs>
<linearGradient id="paint0_linear_1_742" x1="23.227" y1="74.0513" x2="22.5675" y2="71.8251" gradientUnits="userSpaceOnUse">
<stop stop-color="#00192A"/>
<stop offset="0.2981" stop-color="#28233C"/>
<stop offset="0.5857" stop-color="#462B4A"/>
<stop offset="0.8295" stop-color="#593052"/>
<stop offset="1" stop-color="#603255"/>
</linearGradient>
<linearGradient id="paint1_linear_1_742" x1="14.6591" y1="47.8446" x2="20.0356" y2="47.8446" gradientUnits="userSpaceOnUse">
<stop stop-color="#9D5933"/>
<stop offset="0.9811" stop-color="#B57733"/>
</linearGradient>
<linearGradient id="paint2_linear_1_742" x1="26.8859" y1="46.6663" x2="31.8702" y2="46.6663" gradientUnits="userSpaceOnUse">
<stop stop-color="#9D5933"/>
<stop offset="0.9811" stop-color="#B57733"/>
</linearGradient>
<linearGradient id="paint3_linear_1_742" x1="34.4207" y1="99.833" x2="11.6725" y2="23.0008" gradientUnits="userSpaceOnUse">
<stop stop-color="#00192A"/>
<stop offset="0.2981" stop-color="#28233C"/>
<stop offset="0.5857" stop-color="#462B4A"/>
<stop offset="0.8295" stop-color="#593052"/>
<stop offset="1" stop-color="#603255"/>
</linearGradient>
<linearGradient id="paint4_linear_1_742" x1="34.5892" y1="99.7574" x2="11.8686" y2="22.9652" gradientUnits="userSpaceOnUse">
<stop stop-color="#00192A"/>
<stop offset="0.2981" stop-color="#28233C"/>
<stop offset="0.5857" stop-color="#462B4A"/>
<stop offset="0.8295" stop-color="#593052"/>
<stop offset="1" stop-color="#603255"/>
</linearGradient>
<linearGradient id="paint5_linear_1_742" x1="35.7438" y1="99.8833" x2="12.5017" y2="22.324" gradientUnits="userSpaceOnUse">
<stop stop-color="#00192A"/>
<stop offset="0.2981" stop-color="#28233C"/>
<stop offset="0.5857" stop-color="#462B4A"/>
<stop offset="0.8295" stop-color="#593052"/>
<stop offset="1" stop-color="#603255"/>
</linearGradient>
<linearGradient id="paint6_linear_1_742" x1="35.5629" y1="99.9888" x2="12.2721" y2="22.3431" gradientUnits="userSpaceOnUse">
<stop stop-color="#00192A"/>
<stop offset="0.2981" stop-color="#28233C"/>
<stop offset="0.5857" stop-color="#462B4A"/>
<stop offset="0.8295" stop-color="#593052"/>
<stop offset="1" stop-color="#603255"/>
</linearGradient>
<linearGradient id="paint7_linear_1_742" x1="35.6623" y1="99.829" x2="12.5101" y2="22.3975" gradientUnits="userSpaceOnUse">
<stop stop-color="#00192A"/>
<stop offset="0.2981" stop-color="#28233C"/>
<stop offset="0.5857" stop-color="#462B4A"/>
<stop offset="0.8295" stop-color="#593052"/>
<stop offset="1" stop-color="#603255"/>
</linearGradient>
<linearGradient id="paint8_linear_1_742" x1="35.3195" y1="99.6328" x2="12.4976" y2="22.6923" gradientUnits="userSpaceOnUse">
<stop stop-color="#00192A"/>
<stop offset="0.2981" stop-color="#28233C"/>
<stop offset="0.5857" stop-color="#462B4A"/>
<stop offset="0.8295" stop-color="#593052"/>
<stop offset="1" stop-color="#603255"/>
</linearGradient>
<linearGradient id="paint9_linear_1_742" x1="35.6893" y1="99.4526" x2="12.703" y2="22.6927" gradientUnits="userSpaceOnUse">
<stop stop-color="#00192A"/>
<stop offset="0.2981" stop-color="#28233C"/>
<stop offset="0.5857" stop-color="#462B4A"/>
<stop offset="0.8295" stop-color="#593052"/>
<stop offset="1" stop-color="#603255"/>
</linearGradient>
<linearGradient id="paint10_linear_1_742" x1="35.0579" y1="99.5496" x2="12.4131" y2="22.8719" gradientUnits="userSpaceOnUse">
<stop stop-color="#00192A"/>
<stop offset="0.2981" stop-color="#28233C"/>
<stop offset="0.5857" stop-color="#462B4A"/>
<stop offset="0.8295" stop-color="#593052"/>
<stop offset="1" stop-color="#603255"/>
</linearGradient>
<linearGradient id="paint11_linear_1_742" x1="34.9052" y1="99.7239" x2="12.1211" y2="22.8356" gradientUnits="userSpaceOnUse">
<stop stop-color="#00192A"/>
<stop offset="0.2981" stop-color="#28233C"/>
<stop offset="0.5857" stop-color="#462B4A"/>
<stop offset="0.8295" stop-color="#593052"/>
<stop offset="1" stop-color="#603255"/>
</linearGradient>
<linearGradient id="paint12_linear_1_742" x1="34.7501" y1="99.7834" x2="11.9525" y2="22.8697" gradientUnits="userSpaceOnUse">
<stop stop-color="#00192A"/>
<stop offset="0.2981" stop-color="#28233C"/>
<stop offset="0.5857" stop-color="#462B4A"/>
<stop offset="0.8295" stop-color="#593052"/>
<stop offset="1" stop-color="#603255"/>
</linearGradient>
<linearGradient id="paint13_linear_1_742" x1="36.4933" y1="101.025" x2="12.8184" y2="20.9276" gradientUnits="userSpaceOnUse">
<stop stop-color="#00192A"/>
<stop offset="0.2981" stop-color="#28233C"/>
<stop offset="0.5857" stop-color="#462B4A"/>
<stop offset="0.8295" stop-color="#593052"/>
<stop offset="1" stop-color="#603255"/>
</linearGradient>
<linearGradient id="paint14_linear_1_742" x1="35.7474" y1="100.448" x2="11.5902" y2="22.0479" gradientUnits="userSpaceOnUse">
<stop stop-color="#00192A"/>
<stop offset="0.2981" stop-color="#28233C"/>
<stop offset="0.5857" stop-color="#462B4A"/>
<stop offset="0.8295" stop-color="#593052"/>
<stop offset="1" stop-color="#603255"/>
</linearGradient>
<linearGradient id="paint15_linear_1_742" x1="36.151" y1="99.41" x2="13.7979" y2="22.3023" gradientUnits="userSpaceOnUse">
<stop stop-color="#00192A"/>
<stop offset="0.2981" stop-color="#28233C"/>
<stop offset="0.5857" stop-color="#462B4A"/>
<stop offset="0.8295" stop-color="#593052"/>
<stop offset="1" stop-color="#603255"/>
</linearGradient>
<linearGradient id="paint16_linear_1_742" x1="37.4455" y1="180.842" x2="-89.4422" y2="25.9816" gradientUnits="userSpaceOnUse">
<stop stop-color="#00192A"/>
<stop offset="0.2981" stop-color="#28233C"/>
<stop offset="0.5857" stop-color="#462B4A"/>
<stop offset="0.8295" stop-color="#593052"/>
<stop offset="1" stop-color="#603255"/>
</linearGradient>
<linearGradient id="paint17_linear_1_742" x1="36.1673" y1="100.608" x2="12.7114" y2="21.4502" gradientUnits="userSpaceOnUse">
<stop stop-color="#00192A"/>
<stop offset="0.2981" stop-color="#28233C"/>
<stop offset="0.5857" stop-color="#462B4A"/>
<stop offset="0.8295" stop-color="#593052"/>
<stop offset="1" stop-color="#603255"/>
</linearGradient>
<linearGradient id="paint18_linear_1_742" x1="35.6893" y1="100.577" x2="11.4123" y2="21.994" gradientUnits="userSpaceOnUse">
<stop stop-color="#00192A"/>
<stop offset="0.2981" stop-color="#28233C"/>
<stop offset="0.5857" stop-color="#462B4A"/>
<stop offset="0.8295" stop-color="#593052"/>
<stop offset="1" stop-color="#603255"/>
</linearGradient>
<linearGradient id="paint19_linear_1_742" x1="35.9969" y1="100.541" x2="12.6587" y2="21.5812" gradientUnits="userSpaceOnUse">
<stop stop-color="#00192A"/>
<stop offset="0.2981" stop-color="#28233C"/>
<stop offset="0.5857" stop-color="#462B4A"/>
<stop offset="0.8295" stop-color="#593052"/>
<stop offset="1" stop-color="#603255"/>
</linearGradient>
<linearGradient id="paint20_linear_1_742" x1="35.5463" y1="100.602" x2="11.2807" y2="22.0511" gradientUnits="userSpaceOnUse">
<stop stop-color="#00192A"/>
<stop offset="0.2981" stop-color="#28233C"/>
<stop offset="0.5857" stop-color="#462B4A"/>
<stop offset="0.8295" stop-color="#593052"/>
<stop offset="1" stop-color="#603255"/>
</linearGradient>
<linearGradient id="paint21_linear_1_742" x1="36.4506" y1="172.801" x2="-81.9475" y2="28.3926" gradientUnits="userSpaceOnUse">
<stop stop-color="#00192A"/>
<stop offset="0.2981" stop-color="#28233C"/>
<stop offset="0.5857" stop-color="#462B4A"/>
<stop offset="0.8295" stop-color="#593052"/>
<stop offset="1" stop-color="#603255"/>
</linearGradient>
<linearGradient id="paint22_linear_1_742" x1="36.0871" y1="173.166" x2="-82.3889" y2="28.6211" gradientUnits="userSpaceOnUse">
<stop stop-color="#00192A"/>
<stop offset="0.2981" stop-color="#28233C"/>
<stop offset="0.5857" stop-color="#462B4A"/>
<stop offset="0.8295" stop-color="#593052"/>
<stop offset="1" stop-color="#603255"/>
</linearGradient>
<linearGradient id="paint23_linear_1_742" x1="34.5463" y1="99.8888" x2="11.4721" y2="22.9626" gradientUnits="userSpaceOnUse">
<stop stop-color="#00192A"/>
<stop offset="0.2981" stop-color="#28233C"/>
<stop offset="0.5857" stop-color="#462B4A"/>
<stop offset="0.8295" stop-color="#593052"/>
<stop offset="1" stop-color="#603255"/>
</linearGradient>
<linearGradient id="paint24_linear_1_742" x1="-nan" y1="-nan" x2="-nan" y2="-nan" gradientUnits="userSpaceOnUse">
<stop stop-color="#00192A"/>
<stop offset="0.2981" stop-color="#28233C"/>
<stop offset="0.5857" stop-color="#462B4A"/>
<stop offset="0.8295" stop-color="#593052"/>
<stop offset="1" stop-color="#603255"/>
</linearGradient>
<linearGradient id="paint25_linear_1_742" x1="34.6083" y1="99.9681" x2="12.1348" y2="22.7015" gradientUnits="userSpaceOnUse">
<stop stop-color="#00192A"/>
<stop offset="0.2981" stop-color="#28233C"/>
<stop offset="0.5857" stop-color="#462B4A"/>
<stop offset="0.8295" stop-color="#593052"/>
<stop offset="1" stop-color="#603255"/>
</linearGradient>
<linearGradient id="paint26_linear_1_742" x1="35.6441" y1="171.92" x2="-80.5297" y2="27.0425" gradientUnits="userSpaceOnUse">
<stop stop-color="#00192A"/>
<stop offset="0.2981" stop-color="#28233C"/>
<stop offset="0.5857" stop-color="#462B4A"/>
<stop offset="0.8295" stop-color="#593052"/>
<stop offset="1" stop-color="#603255"/>
</linearGradient>
<linearGradient id="paint27_linear_1_742" x1="34.6948" y1="99.7177" x2="11.7424" y2="23.0047" gradientUnits="userSpaceOnUse">
<stop stop-color="#00192A"/>
<stop offset="0.2981" stop-color="#28233C"/>
<stop offset="0.5857" stop-color="#462B4A"/>
<stop offset="0.8295" stop-color="#593052"/>
<stop offset="1" stop-color="#603255"/>
</linearGradient>
<linearGradient id="paint28_linear_1_742" x1="34.3792" y1="99.9551" x2="11.2796" y2="23.0045" gradientUnits="userSpaceOnUse">
<stop stop-color="#00192A"/>
<stop offset="0.2981" stop-color="#28233C"/>
<stop offset="0.5857" stop-color="#462B4A"/>
<stop offset="0.8295" stop-color="#593052"/>
<stop offset="1" stop-color="#603255"/>
</linearGradient>
<linearGradient id="paint29_linear_1_742" x1="22.3742" y1="58.9422" x2="31.922" y2="58.9422" gradientUnits="userSpaceOnUse">
<stop stop-color="#00192A"/>
<stop offset="0.2981" stop-color="#28233C"/>
<stop offset="0.5857" stop-color="#462B4A"/>
<stop offset="0.8295" stop-color="#593052"/>
<stop offset="1" stop-color="#603255"/>
</linearGradient>
<linearGradient id="paint30_linear_1_742" x1="23.2793" y1="52.6394" x2="22.7705" y2="51.3652" gradientUnits="userSpaceOnUse">
<stop stop-color="#00192A"/>
<stop offset="0.2981" stop-color="#28233C"/>
<stop offset="0.5857" stop-color="#462B4A"/>
<stop offset="0.8295" stop-color="#593052"/>
<stop offset="1" stop-color="#603255"/>
</linearGradient>
<linearGradient id="paint31_linear_1_742" x1="29.9346" y1="50.8792" x2="29.5101" y2="49.8161" gradientUnits="userSpaceOnUse">
<stop stop-color="#00192A"/>
<stop offset="0.2981" stop-color="#28233C"/>
<stop offset="0.5857" stop-color="#462B4A"/>
<stop offset="0.8295" stop-color="#593052"/>
<stop offset="1" stop-color="#603255"/>
</linearGradient>
<linearGradient id="paint32_linear_1_742" x1="31.421" y1="56.1065" x2="30.9944" y2="54.6663" gradientUnits="userSpaceOnUse">
<stop stop-color="#00192A"/>
<stop offset="0.2981" stop-color="#28233C"/>
<stop offset="0.5857" stop-color="#462B4A"/>
<stop offset="0.8295" stop-color="#593052"/>
<stop offset="1" stop-color="#603255"/>
</linearGradient>
<linearGradient id="paint33_linear_1_742" x1="31.1974" y1="56.7848" x2="31.4972" y2="56.7848" gradientUnits="userSpaceOnUse">
<stop stop-color="#00192A"/>
<stop offset="0.2981" stop-color="#28233C"/>
<stop offset="0.5857" stop-color="#462B4A"/>
<stop offset="0.8295" stop-color="#593052"/>
<stop offset="1" stop-color="#603255"/>
</linearGradient>
<linearGradient id="paint34_linear_1_742" x1="15.2505" y1="70.9972" x2="27.0604" y2="70.9972" gradientUnits="userSpaceOnUse">
<stop stop-color="#00192A"/>
<stop offset="0.2981" stop-color="#28233C"/>
<stop offset="0.5857" stop-color="#462B4A"/>
<stop offset="0.8295" stop-color="#593052"/>
<stop offset="1" stop-color="#603255"/>
</linearGradient>
<linearGradient id="paint35_linear_1_742" x1="34.9385" y1="72.195" x2="34.2789" y2="69.9688" gradientUnits="userSpaceOnUse">
<stop stop-color="#00192A"/>
<stop offset="0.2981" stop-color="#28233C"/>
<stop offset="0.5857" stop-color="#462B4A"/>
<stop offset="0.8295" stop-color="#593052"/>
<stop offset="1" stop-color="#603255"/>
</linearGradient>
<linearGradient id="paint36_linear_1_742" x1="34.9385" y1="72.195" x2="34.2789" y2="69.9688" gradientUnits="userSpaceOnUse">
<stop stop-color="#00192A"/>
<stop offset="0.2981" stop-color="#28233C"/>
<stop offset="0.5857" stop-color="#462B4A"/>
<stop offset="0.8295" stop-color="#593052"/>
<stop offset="1" stop-color="#603255"/>
</linearGradient>
<linearGradient id="paint37_linear_1_742" x1="85.5431" y1="17.6172" x2="85.5431" y2="-0.000127059" gradientUnits="userSpaceOnUse">
<stop stop-color="#000028"/>
<stop offset="1" stop-color="#002D4F"/>
</linearGradient>
<linearGradient id="paint38_linear_1_742" x1="42.543" y1="89.3047" x2="65.0905" y2="89.3047" gradientUnits="userSpaceOnUse">
<stop stop-color="#000028"/>
<stop offset="1" stop-color="#002D4F"/>
</linearGradient>
<linearGradient id="paint39_linear_1_742" x1="78.1376" y1="76.1975" x2="78.1376" y2="26.7114" gradientUnits="userSpaceOnUse">
<stop stop-color="#8D5F3E" stop-opacity="0"/>
<stop offset="1" stop-color="#5F3409"/>
</linearGradient>
<linearGradient id="paint40_linear_1_742" x1="112.831" y1="96.9236" x2="97.6937" y2="81.0006" gradientUnits="userSpaceOnUse">
<stop stop-color="#000028"/>
<stop offset="1" stop-color="#002D4F"/>
</linearGradient>
</defs>
</svg>
